#!OML:ASF I:\Actors\actors\Patient Classification 2\Patient 1\Session 1\actor1.ASF
:FULLY-SPECIFIED
:DEGREES
321
root -1.61312 18.5442 3.80645 14.0614 -32.0084 -4.46249
lowerback 24.5167 -2.51646 -6.71284
upperback 6.65022 -5.3302 -3.88481
thorax -6.01879 -2.59183 1.11691
lowerneck -10.7017 8.51499 8.44353
upperneck 27.6431 11.4859 -5.9472
head 11.636 5.21173 -2.08046
rclavicle -8.74653e-014 8.74653e-014
rhumerus -0.999469 37.2001 -79.5271
rradius 117.705
rwrist -14.4861
rhand -30.7769 -40.3459
rfingers 7.12502
rthumb -4.06773 -70.2868
lclavicle -8.74653e-014 8.74653e-014
lhumerus 9.85204 -31.5218 75.3654
lradius 67.2958
lwrist 17.003
lhand -26.0021 -66.5143
lfingers 7.12502
lthumb 0.543678 -36.5353
rfemur -25.1255 16.7385 17.6643
rtibia 22.9364
rfoot -9.79951 1.56918
rtoes -6.63869
lfemur -16.8805 17.3361 -10.1021
ltibia 31.2089
lfoot -25.58 17.175
ltoes -56.1588
322
root -1.59505 18.5485 3.80393 14.2163 -31.8025 -4.7438
lowerback 24.3481 -2.78411 -6.78781
upperback 6.67895 -5.68221 -4.01161
thorax -5.88762 -2.7656 1.10646
lowerneck -10.3435 8.88712 9.00953
upperneck 27.2288 12.0279 -6.43305
head 11.5296 5.46889 -2.28009
rclavicle 1.74931e-014 3.49861e-014
rhumerus -0.144148 36.6012 -78.9799
rradius 117.868
rwrist -13.2005
rhand -31.2133 -40.1178
rfingers 7.12502
rthumb -4.4891 -70.0502
lclavicle 1.74931e-014 3.49861e-014
lhumerus 10.93 -31.5275 74.7944
lradius 68.7065
lwrist 16.9656
lhand -26.4709 -67.03
lfingers 7.12502
lthumb 0.0909207 -37.0503
rfemur -24.9354 16.463 17.9611
rtibia 22.5214
rfoot -9.63497 1.52616
rtoes -6.80548
lfemur -17.0156 17.3648 -9.85725
ltibia 31.2749
lfoot -25.4373 17.0536
ltoes -56.3031
323
root -1.57081 18.5524 3.79891 14.4233 -31.6217 -5.0718
lowerback 24.2147 -3.09062 -6.71606
upperback 6.73238 -6.06021 -4.24047
thorax -5.77399 -2.95284 0.911227
lowerneck -10.2483 9.27372 9.44259
upperneck 27.1498 12.5217 -6.57722
head 11.5725 5.71566 -2.32891
rclavicle 7.95139e-014 8.5875e-014
rhumerus 0.69621 35.9708 -78.592
rradius 117.927
rwrist -12.0249
rhand -31.5903 -39.9243
rfingers 7.12502
rthumb -4.85318 -69.8487
lclavicle 7.95139e-014 8.5875e-014
lhumerus 12.0771 -31.463 74.0548
lradius 70.0006
lwrist 16.6849
lhand -26.5998 -67.5444
lfingers 7.12502
lthumb -0.0335857 -37.5647
rfemur -24.8039 16.1211 18.2925
rtibia 22.1069
rfoot -9.36363 1.56701
rtoes -6.83332
lfemur -17.2141 17.377 -9.59232
ltibia 31.3843
lfoot -25.3472 16.8592
ltoes -56.2203
324
root -1.54356 18.5556 3.79183 14.648 -31.5436 -5.3583
lowerback 24.0458 -3.3623 -6.68758
upperback 6.83814 -6.40276 -4.52735
thorax -5.5924 -3.12704 0.662062
lowerneck -10.1069 9.63796 10.0242
upperneck 26.8026 12.9962 -6.90559
head 11.5302 5.95537 -2.4712
rclavicle 5.56597e-014 -2.8625e-014
rhumerus 1.55526 35.3539 -78.345
rradius 117.832
rwrist -10.9499
rhand -31.8599 -39.3898
rfingers 7.12502
rthumb -5.11344 -69.3081
lclavicle 5.56597e-014 -2.8625e-014
lhumerus 13.3719 -31.2998 73.1896
lradius 71.0814
lwrist 16.2888
lhand -26.6519 -67.964
lfingers 7.12502
lthumb -0.083927 -37.9842
rfemur -24.7535 15.8306 18.533
rtibia 21.7077
rfoot -9.0159 1.64841
rtoes -6.47022
lfemur -17.4609 17.4464 -9.40852
ltibia 31.5239
lfoot -25.3199 16.652
ltoes -56.0556
325
root -1.51719 18.5583 3.78248 14.9281 -31.5719 -5.62666
lowerback 23.7537 -3.51206 -6.8865
upperback 6.98924 -6.61684 -4.70672
thorax -5.26718 -3.24583 0.606973
lowerneck -9.88857 9.93206 10.5222
upperneck 26.2486 13.3993 -7.28738
head 11.3877 6.15686 -2.63267
rclavicle -3.18055e-015 9.54166e-015
rhumerus 2.46641 34.8081 -77.9577
rradius 117.614
rwrist -10.0905
rhand -32.0684 -38.642
rfingers 7.12502
rthumb -5.31476 -68.5554
lclavicle -3.18055e-015 9.54166e-015
lhumerus 14.736 -30.9815 72.4555
lradius 71.8589
lwrist 15.9707
lhand -26.8337 -68.4469
lfingers 7.12502
lthumb -0.259431 -38.4674
rfemur -24.7958 15.5874 18.7163
rtibia 21.3338
rfoot -8.63811 1.74997
rtoes -6.36733
lfemur -17.7671 17.5866 -9.2788
ltibia 31.6907
lfoot -25.3625 16.4573
ltoes -55.8688
326
root -1.48862 18.5612 3.77129 15.2516 -31.6098 -5.91957
lowerback 23.6799 -3.63009 -7.13976
upperback 7.01861 -6.82167 -4.78412
thorax -5.16642 -3.34839 0.708604
lowerneck -9.85716 10.1973 10.6175
upperneck 25.9913 13.7413 -7.29287
head 11.3288 6.3225 -2.59562
rclavicle 5.56597e-014 1.90833e-014
rhumerus 3.19557 34.5551 -77.5654
rradius 117.329
rwrist -9.4797
rhand -32.5239 -38.323
rfingers 7.12502
rthumb -5.7546 -68.2249
lclavicle 5.56597e-014 1.90833e-014
lhumerus 15.7349 -30.4189 72.083
lradius 72.4071
lwrist 15.7601
lhand -26.8227 -68.9381
lfingers 7.12502
lthumb -0.248817 -38.9585
rfemur -24.9024 15.2743 18.9373
rtibia 21.0239
rfoot -8.30756 1.8871
rtoes -6.918
lfemur -18.1306 17.7056 -9.13679
ltibia 31.9014
lfoot -25.454 16.2706
ltoes -55.5707
327
root -1.45494 18.5631 3.75749 15.6069 -31.6368 -6.25769
lowerback 23.5832 -3.74113 -7.23996
upperback 7.11474 -6.9767 -4.87627
thorax -5.00334 -3.43173 0.691828
lowerneck -9.35 10.399 11.0154
upperneck 24.9807 14.0914 -7.90054
head 10.969 6.48777 -2.84349
rclavicle -1.27222e-014 0
rhumerus 3.88795 34.3963 -77.2643
rradius 116.971
rwrist -9.01469
rhand -32.912 -38.1712
rfingers 7.12502
rthumb -6.12927 -68.0625
lclavicle -1.27222e-014 0
lhumerus 16.6771 -29.738 71.7561
lradius 72.8033
lwrist 15.571
lhand -26.7797 -69.251
lfingers 7.12502
lthumb -0.207294 -39.2714
rfemur -25.076 14.929 19.2081
rtibia 20.7893
rfoot -7.9815 2.02933
rtoes -7.39309
lfemur -18.5582 17.893 -8.96568
ltibia 32.1664
lfoot -25.5025 16.066
ltoes -55.268
328
root -1.41735 18.5619 3.74269 15.9697 -31.6453 -6.61819
lowerback 23.6077 -3.75181 -7.3401
upperback 7.17341 -7.00702 -4.83754
thorax -4.93154 -3.4505 0.794274
lowerneck -9.95838 10.5976 10.5084
upperneck 25.356 14.2911 -7.32659
head 11.1594 6.56536 -2.49715
rclavicle 3.81667e-014 3.18055e-015
rhumerus 4.32811 34.301 -76.9042
rradius 116.591
rwrist -8.82111
rhand -32.9864 -37.8334
rfingers 7.12502
rthumb -6.2011 -67.7227
lclavicle 3.81667e-014 3.18055e-015
lhumerus 17.4248 -28.9836 71.7566
lradius 72.9517
lwrist 15.3039
lhand -26.7047 -69.3743
lfingers 7.12502
lthumb -0.1349 -39.3946
rfemur -25.2834 14.5934 19.4978
rtibia 20.6117
rfoot -7.62846 2.16278
rtoes -7.78751
lfemur -19.0354 18.1287 -8.78488
ltibia 32.489
lfoot -25.5169 15.8734
ltoes -55.0852
329
root -1.37904 18.5599 3.72888 16.2871 -31.6132 -6.88947
lowerback 23.6847 -3.74438 -7.38034
upperback 7.20744 -7.00988 -4.82347
thorax -4.92563 -3.45249 0.836126
lowerneck -8.76564 10.5614 11.2062
upperneck 23.6093 14.4126 -8.54591
head 10.4537 6.633 -3.07877
rclavicle 7.95139e-015 -5.725e-014
rhumerus 4.56432 34.3246 -76.7488
rradius 116.112
rwrist -8.99064
rhand -33.0277 -37.6119
rfingers 7.12502
rthumb -6.24097 -67.4999
lclavicle 7.95139e-015 -5.725e-014
lhumerus 17.9545 -28.1613 71.8516
lradius 72.7433
lwrist 14.9629
lhand -26.5762 -69.3736
lfingers 7.12502
lthumb -0.010731 -39.3939
rfemur -25.5202 14.3045 19.6882
rtibia 20.4906
rfoot -7.36667 2.24412
rtoes -8.34533
lfemur -19.5527 18.3209 -8.69863
ltibia 32.8532
lfoot -25.5082 15.7451
ltoes -55.0722
330
root -1.34268 18.558 3.71424 16.5641 -31.5748 -7.05294
lowerback 23.7727 -3.68088 -7.45392
upperback 7.20674 -6.95314 -4.81824
thorax -4.96387 -3.42291 0.874246
lowerneck -8.95334 10.5857 10.9589
upperneck 23.438 14.4204 -8.35697
head 10.3908 6.63413 -2.96324
rclavicle -2.8625e-014 -1.90833e-014
rhumerus 4.60517 34.4932 -76.7919
rradius 115.487
rwrist -9.35196
rhand -33.0681 -37.6125
rfingers 7.12502
rthumb -6.27996 -67.4994
lclavicle -2.8625e-014 -1.90833e-014
lhumerus 18.2514 -27.3363 72.1253
lradius 72.1429
lwrist 14.6705
lhand -26.5489 -69.2399
lfingers 7.12502
lthumb 0.0156154 -39.2602
rfemur -25.8092 14.0415 19.769
rtibia 20.4318
rfoot -7.1769 2.3203
rtoes -9.09027
lfemur -20.1047 18.5493 -8.72318
ltibia 33.2278
lfoot -25.43 15.6198
ltoes -55.1786
331
root -1.30867 18.5547 3.7002 16.7277 -31.5273 -7.14003
lowerback 23.935 -3.52242 -7.6248
upperback 7.18982 -6.80099 -4.74606
thorax -5.04225 -3.34533 1.01921
lowerneck -9.05425 10.5558 10.8107
upperneck 23.2793 14.3862 -8.3402
head 10.3341 6.61009 -2.93465
rclavicle 7.63333e-014 -4.13472e-014
rhumerus 4.41695 34.8377 -76.8684
rradius 114.758
rwrist -9.82112
rhand -32.9954 -37.8431
rfingers 7.12502
rthumb -6.20973 -67.7321
lclavicle 7.63333e-014 -4.13472e-014
lhumerus 18.3847 -26.5726 72.5947
lradius 71.1204
lwrist 14.666
lhand -26.7398 -68.7513
lfingers 7.12502
lthumb -0.168777 -38.7716
rfemur -26.0318 13.7946 19.7957
rtibia 20.4308
rfoot -7.05262 2.41693
rtoes -9.86679
lfemur -20.5712 18.7867 -8.78771
ltibia 33.5867
lfoot -25.3419 15.441
ltoes -55.3126
332
root -1.27665 18.5495 3.69069 16.7534 -31.406 -7.17717
lowerback 24.0347 -3.38353 -7.64451
upperback 7.27503 -6.63319 -4.75875
thorax -5.00777 -3.26781 0.976244
lowerneck -9.08333 10.5188 10.821
upperneck 22.9972 14.3388 -8.43119
head 10.2401 6.58813 -2.97348
rclavicle 6.36111e-015 -4.13472e-014
rhumerus 4.22759 35.2461 -77.1488
rradius 113.871
rwrist -10.5531
rhand -32.7567 -38.0604
rfingers 7.12502
rthumb -5.97937 -67.956
lclavicle 6.36111e-015 -4.13472e-014
lhumerus 18.5377 -25.9156 72.9055
lradius 69.669
lwrist 14.9876
lhand -27.0622 -67.8621
lfingers 7.12502
lthumb -0.480203 -37.8829
rfemur -26.1417 13.6336 19.7767
rtibia 20.4951
rfoot -7.08558 2.41037
rtoes -10.2768
lfemur -20.9073 18.9518 -8.84695
ltibia 33.9205
lfoot -25.2852 15.2016
ltoes -55.4142
333
root -1.24692 18.5423 3.68377 16.7117 -31.1968 -7.15145
lowerback 24.1695 -3.19902 -7.67185
upperback 7.29761 -6.40991 -4.68953
thorax -5.0522 -3.15859 1.01634
lowerneck -9.25107 10.4491 10.7243
upperneck 23.0127 14.2411 -8.388
head 10.2549 6.53674 -2.94977
rclavicle -1.59028e-015 1.59028e-014
rhumerus 3.95028 35.6627 -77.3926
rradius 112.894
rwrist -11.5681
rhand -32.3103 -38.4004
rfingers 7.12502
rthumb -5.54834 -68.3078
lclavicle -1.59028e-015 1.59028e-014
lhumerus 18.4149 -25.3154 73.567
lradius 67.9088
lwrist 15.4514
lhand -27.1728 -66.8411
lfingers 7.12502
lthumb -0.586954 -36.8621
rfemur -26.2338 13.5537 19.6905
rtibia 20.6295
rfoot -7.23559 2.27364
rtoes -10.4269
lfemur -21.2127 19.1023 -8.93816
ltibia 34.2348
lfoot -25.1876 14.9054
ltoes -55.4839
334
root -1.21747 18.5356 3.6788 16.5852 -30.8193 -7.03665
lowerback 24.0748 -3.07134 -7.54935
upperback 7.43285 -6.19525 -4.66269
thorax -4.87929 -3.06542 0.909293
lowerneck -9.37161 10.3541 10.7013
upperneck 22.9939 14.0914 -8.32516
head 10.2473 6.4724 -2.94071
rclavicle -2.22639e-014 -1.90833e-014
rhumerus 3.82412 36.0048 -77.6336
rradius 111.967
rwrist -12.689
rhand -31.7068 -39.2764
rfingers 7.12502
rthumb -4.96559 -69.1982
lclavicle -2.22639e-014 -1.90833e-014
lhumerus 18.1788 -24.8422 74.1048
lradius 66.2556
lwrist 16.0202
lhand -26.9989 -65.8339
lfingers 7.12502
lthumb -0.419016 -35.8546
rfemur -26.2797 13.4704 19.5319
rtibia 20.8115
rfoot -7.50507 2.02103
rtoes -10.5976
lfemur -21.5104 19.1457 -9.07635
ltibia 34.5325
lfoot -25.0362 14.581
ltoes -55.5807
335
root -1.18652 18.5297 3.67337 16.4135 -30.1985 -6.9249
lowerback 24.2305 -2.99788 -7.39207
upperback 7.42316 -6.062 -4.46585
thorax -4.9702 -2.99607 1.01077
lowerneck -9.29832 10.2603 10.5965
upperneck 23.0235 13.9936 -8.33416
head 10.2249 6.42191 -2.94632
rclavicle -9.85972e-014 -2.54444e-014
rhumerus 3.4616 36.5946 -77.8721
rradius 111.288
rwrist -13.8204
rhand -31.2674 -40.4306
rfingers 7.12502
rthumb -4.54139 -70.3619
lclavicle -9.85972e-014 -2.54444e-014
lhumerus 17.2794 -24.4373 74.7284
lradius 65.2492
lwrist 16.2826
lhand -26.7633 -64.8969
lfingers 7.12502
lthumb -0.191478 -34.9172
rfemur -26.2615 13.2347 19.4344
rtibia 21.0156
rfoot -7.85744 1.72639
rtoes -10.8329
lfemur -21.815 18.9801 -9.15212
ltibia 34.8079
lfoot -24.8477 14.2306
ltoes -55.7048
